<?xml version="1.0" encoding="UTF-8"?>
<svg id="Layer_1" xmlns="http://www.w3.org/2000/svg" version="1.1" viewBox="0 0 240 407">
  <!-- Generator: Adobe Illustrator 29.0.0, SVG Export Plug-In . SVG Version: 2.1.0 Build 186)  -->
  <defs>
    <style>
      .st0 {
        fill: #fff;
      }
    </style>
  </defs>
  <path class="st0" d="M197.79.33H42.21C19.2.33.48,19.06.48,42.07v323.11c0,23.01,18.72,41.74,41.74,41.74h155.57c23.01,0,41.74-18.72,41.74-41.74V42.07C239.52,19.06,220.8.33,197.79.33ZM42.21,19.18h155.57c12.62,0,22.89,10.27,22.89,22.89v259.68H19.33V42.07c0-12.62,10.27-22.89,22.89-22.89ZM197.79,388.07H42.21c-12.62,0-22.89-10.27-22.89-22.89v-44.59h201.35v44.59c0,12.62-10.27,22.89-22.89,22.89Z"/>
  <path class="st0" d="M80.51,60.98h78.98c12.99,0,13.02-20.19,0-20.19h-78.98c-12.99,0-13.02,20.19,0,20.19Z"/>
  <circle class="st0" cx="120" cy="354.26" r="25.12"/>
</svg>