<?xml version="1.0" encoding="utf-8"?>
<!-- Generator: Adobe Illustrator 27.8.1, SVG Export Plug-In . SVG Version: 6.00 Build 0)  -->
<svg version="1.1" id="Layer_1" xmlns="http://www.w3.org/2000/svg" xmlns:xlink="http://www.w3.org/1999/xlink" x="0px" y="0px"
	 viewBox="0 0 238 238.05" style="enable-background:new 0 0 238 238.05;" xml:space="preserve">
<style type="text/css">
	.st0{fill:#FFFFFF;}
	.st1{fill:#0A2E59;}
</style>
<g>
	<path class="st1" d="M238,119.04L238,119.04c0,8.43-6.9,15.33-15.33,15.33H15.33C6.9,134.38,0,127.48,0,119.04v0
		c0-8.43,6.9-15.33,15.33-15.33h207.33C231.1,103.71,238,110.61,238,119.04z"/>
	<path class="st1" d="M119,0.05L119,0.05c8.43,0,15.33,6.9,15.33,15.33v207.33c0,8.43-6.9,15.33-15.33,15.33h0
		c-8.43,0-15.33-6.9-15.33-15.33V15.38C103.67,6.95,110.57,0.05,119,0.05z"/>
</g>
</svg>
